ISO-10303-21;
HEADER;
FILE_DESCRIPTION (( 'STEP AP214' ),
    '1' );
FILE_NAME ('1035.STEP',
    '2007-12-17T15:28:52',
    ( 'Richard Maletta' ),
    ( '' ),
    'SwSTEP 2.0',
    'SolidWorks 2007',
    '' );
FILE_SCHEMA (( 'AUTOMOTIVE_DESIGN' ));
ENDSEC;

DATA;
#1 = VECTOR ( 'NONE', #2, 39.37007874015748100 ) ;
#2 = DIRECTION ( 'NONE',  ( 1.000000000000000000, 0.0000000000000000000, 0.0000000000000000000 ) ) ;
#3 = CARTESIAN_POINT ( 'NONE',  ( -0.02349999999999998600, 0.3350000000000000200, 0.02000000000000000000 ) ) ;
#4 = DIRECTION ( 'NONE',  ( -1.000000000000000000, 0.0000000000000000000, 0.0000000000000000000 ) ) ;
#5 = LINE ( 'NONE', #3, #6 ) ;
#6 = VECTOR ( 'NONE', #4, 39.37007874015748100 ) ;
#7 = DIRECTION ( 'NONE',  ( -1.174819951403782900E-016, -1.000000000000000000, 0.0000000000000000000 ) ) ;
#8 = CARTESIAN_POINT ( 'NONE',  ( -0.05000000000000000300, 0.3350000000000000200, 0.02000000000000000000 ) ) ;
#9 = VECTOR ( 'NONE', #7, 39.37007874015748100 ) ;
#10 = LINE ( 'NONE', #8, #9 ) ;
#11 = CARTESIAN_POINT ( 'NONE',  ( 0.01000000000000000000, -2.560501156320563600E-018, 0.0000000000000000000 ) ) ;
#12 = LINE ( 'NONE', #11, #1 ) ;
#13 = CARTESIAN_POINT ( 'NONE',  ( 0.01000000000000000000, -2.560501156320563600E-018, 0.0000000000000000000 ) ) ;
#14 = ORIENTED_EDGE ( 'NONE', *, *, #15, .F. ) ;
#15 = EDGE_CURVE ( 'NONE', #16, #99, #144, .T. ) ;
#16 = VERTEX_POINT ( 'NONE', #140 ) ;
#17 = ORIENTED_EDGE ( 'NONE', *, *, #18, .F. ) ;
#18 = EDGE_CURVE ( 'NONE', #19, #16, #132, .T. ) ;
#19 = VERTEX_POINT ( 'NONE', #128 ) ;
#20 = ORIENTED_EDGE ( 'NONE', *, *, #21, .F. ) ;
#21 = EDGE_CURVE ( 'NONE', #22, #19, #127, .T. ) ;
#22 = VERTEX_POINT ( 'NONE', #13 ) ;
#23 = ORIENTED_EDGE ( 'NONE', *, *, #24, .F. ) ;
#24 = EDGE_CURVE ( 'NONE', #25, #22, #12, .T. ) ;
#25 = VERTEX_POINT ( 'NONE', #457 ) ;
#26 = ORIENTED_EDGE ( 'NONE', *, *, #27, .F. ) ;
#27 = EDGE_CURVE ( 'NONE', #28, #25, #350, .T. ) ;
#28 = VERTEX_POINT ( 'NONE', #412 ) ;
#29 = ORIENTED_EDGE ( 'NONE', *, *, #30, .F. ) ;
#30 = EDGE_CURVE ( 'NONE', #31, #28, #443, .T. ) ;
#31 = VERTEX_POINT ( 'NONE', #448 ) ;
#32 = ORIENTED_EDGE ( 'NONE', *, *, #33, .F. ) ;
#33 = EDGE_CURVE ( 'NONE', #34, #31, #298, .T. ) ;
#34 = VERTEX_POINT ( 'NONE', #414 ) ;
#35 = ORIENTED_EDGE ( 'NONE', *, *, #36, .F. ) ;
#36 = EDGE_CURVE ( 'NONE', #49, #34, #312, .T. ) ;
#37 = EDGE_LOOP ( 'NONE', ( #38, #42, #45, #48, #91, #189, #192, #195, #198, #80, #83, #86, #201, #204 ) ) ;
#38 = ORIENTED_EDGE ( 'NONE', *, *, #39, .T. ) ;
#39 = EDGE_CURVE ( 'NONE', #40, #41, #439, .T. ) ;
#40 = VERTEX_POINT ( 'NONE', #294 ) ;
#41 = VERTEX_POINT ( 'NONE', #295 ) ;
#42 = ORIENTED_EDGE ( 'NONE', *, *, #43, .T. ) ;
#43 = EDGE_CURVE ( 'NONE', #41, #44, #455, .T. ) ;
#44 = VERTEX_POINT ( 'NONE', #451 ) ;
#45 = ORIENTED_EDGE ( 'NONE', *, *, #46, .T. ) ;
#46 = EDGE_CURVE ( 'NONE', #44, #47, #447, .T. ) ;
#47 = VERTEX_POINT ( 'NONE', #348 ) ;
#48 = ORIENTED_EDGE ( 'NONE', *, *, #89, .T. ) ;
#49 = VERTEX_POINT ( 'NONE', #347 ) ;
#50 = ORIENTED_EDGE ( 'NONE', *, *, #51, .F. ) ;
#51 = EDGE_CURVE ( 'NONE', #52, #49, #346, .T. ) ;
#52 = VERTEX_POINT ( 'NONE', #390 ) ;
#53 = ORIENTED_EDGE ( 'NONE', *, *, #54, .F. ) ;
#54 = EDGE_CURVE ( 'NONE', #55, #52, #389, .T. ) ;
#55 = VERTEX_POINT ( 'NONE', #385 ) ;
#56 = ORIENTED_EDGE ( 'NONE', *, *, #57, .F. ) ;
#57 = EDGE_CURVE ( 'NONE', #58, #55, #310, .T. ) ;
#58 = VERTEX_POINT ( 'NONE', #305 ) ;
#59 = ORIENTED_EDGE ( 'NONE', *, *, #60, .F. ) ;
#60 = EDGE_CURVE ( 'NONE', #114, #58, #384, .T. ) ;
#61 = ORIENTED_EDGE ( 'NONE', *, *, #57, .T. ) ;
#62 = ORIENTED_EDGE ( 'NONE', *, *, #133, .F. ) ;
#63 = ORIENTED_EDGE ( 'NONE', *, *, #212, .F. ) ;
#64 = ADVANCED_FACE ( 'NONE', ( #380 ), #379, .F. ) ;
#65 = ORIENTED_EDGE ( 'NONE', *, *, #264, .T. ) ;
#66 = ORIENTED_EDGE ( 'NONE', *, *, #60, .T. ) ;
#67 = EDGE_LOOP ( 'NONE', ( #66, #63, #213, #214 ) ) ;
#68 = ORIENTED_EDGE ( 'NONE', *, *, #69, .F. ) ;
#69 = EDGE_CURVE ( 'NONE', #44, #114, #302, .T. ) ;
#70 = ORIENTED_EDGE ( 'NONE', *, *, #248, .T. ) ;
#71 = ORIENTED_EDGE ( 'NONE', *, *, #72, .F. ) ;
#72 = EDGE_CURVE ( 'NONE', #73, #209, #426, .T. ) ;
#73 = VERTEX_POINT ( 'NONE', #421 ) ;
#74 = ORIENTED_EDGE ( 'NONE', *, *, #75, .F. ) ;
#75 = EDGE_CURVE ( 'NONE', #76, #73, #420, .T. ) ;
#76 = VERTEX_POINT ( 'NONE', #411 ) ;
#77 = ORIENTED_EDGE ( 'NONE', *, *, #94, .F. ) ;
#78 = MANIFOLD_SOLID_BREP ( 'NONE', #168 ) ;
#79 = ADVANCED_FACE ( 'NONE', ( #286, #437 ), #436, .T. ) ;
#80 = ORIENTED_EDGE ( 'NONE', *, *, #81, .T. ) ;
#81 = EDGE_CURVE ( 'NONE', #200, #82, #431, .T. ) ;
#82 = VERTEX_POINT ( 'NONE', #427 ) ;
#83 = ORIENTED_EDGE ( 'NONE', *, *, #84, .T. ) ;
#84 = EDGE_CURVE ( 'NONE', #82, #85, #399, .T. ) ;
#85 = VERTEX_POINT ( 'NONE', #395 ) ;
#86 = ORIENTED_EDGE ( 'NONE', *, *, #87, .T. ) ;
#87 = EDGE_CURVE ( 'NONE', #85, #88, #394, .T. ) ;
#88 = VERTEX_POINT ( 'NONE', #375 ) ;
#89 = EDGE_CURVE ( 'NONE', #47, #90, #374, .T. ) ;
#90 = VERTEX_POINT ( 'NONE', #369 ) ;
#91 = ORIENTED_EDGE ( 'NONE', *, *, #92, .T. ) ;
#92 = EDGE_CURVE ( 'NONE', #90, #93, #368, .T. ) ;
#93 = VERTEX_POINT ( 'NONE', #364 ) ;
#94 = EDGE_CURVE ( 'NONE', #210, #76, #363, .T. ) ;
#95 = ADVANCED_FACE ( 'NONE', ( #358, #357 ), #356, .F. ) ;
#96 = EDGE_LOOP ( 'NONE', ( #97, #14, #17, #20, #23, #26, #29, #32, #35, #50, #53, #56, #59, #234 ) ) ;
#97 = ORIENTED_EDGE ( 'NONE', *, *, #98, .F. ) ;
#98 = EDGE_CURVE ( 'NONE', #99, #100, #351, .T. ) ;
#99 = VERTEX_POINT ( 'NONE', #339 ) ;
#100 = VERTEX_POINT ( 'NONE', #338 ) ;
#101 = ORIENTED_EDGE ( 'NONE', *, *, #102, .T. ) ;
#102 = EDGE_CURVE ( 'NONE', #209, #249, #337, .T. ) ;
#103 = ADVANCED_FACE ( 'NONE', ( #333 ), #332, .T. ) ;
#104 = EDGE_LOOP ( 'NONE', ( #105, #106, #107, #108 ) ) ;
#105 = ORIENTED_EDGE ( 'NONE', *, *, #134, .F. ) ;
#106 = ORIENTED_EDGE ( 'NONE', *, *, #102, .F. ) ;
#107 = ORIENTED_EDGE ( 'NONE', *, *, #208, .T. ) ;
#108 = ORIENTED_EDGE ( 'NONE', *, *, #109, .T. ) ;
#109 = EDGE_CURVE ( 'NONE', #210, #138, #327, .T. ) ;
#110 = ADVANCED_FACE ( 'NONE', ( #323 ), #322, .F. ) ;
#111 = ADVANCED_FACE ( 'NONE', ( #316 ), #321, .F. ) ;
#112 = ORIENTED_EDGE ( 'NONE', *, *, #170, .T. ) ;
#113 = ORIENTED_EDGE ( 'NONE', *, *, #39, .F. ) ;
#114 = VERTEX_POINT ( 'NONE', #284 ) ;
#115 = ORIENTED_EDGE ( 'NONE', *, *, #212, .T. ) ;
#116 = ADVANCED_FACE ( 'NONE', ( #283 ), #282, .F. ) ;
#117 = EDGE_LOOP ( 'NONE', ( #119, #120, #184, #187 ) ) ;
#118 = ORIENTED_EDGE ( 'NONE', *, *, #89, .F. ) ;
#119 = ORIENTED_EDGE ( 'NONE', *, *, #54, .T. ) ;
#120 = ORIENTED_EDGE ( 'NONE', *, *, #211, .F. ) ;
#121 = EDGE_CURVE ( 'NONE', #266, #136, #277, .T. ) ;
#122 = EDGE_LOOP ( 'NONE', ( #268, #269, #113, #112 ) ) ;
#123 = ORIENTED_EDGE ( 'NONE', *, *, #121, .T. ) ;
#124 = DIRECTION ( 'NONE',  ( 0.1643989873053578200, 0.9863939238321436400, 0.0000000000000000000 ) ) ;
#125 = VECTOR ( 'NONE', #124, 39.37007874015748100 ) ;
#126 = CARTESIAN_POINT ( 'NONE',  ( 0.01950000000000004200, 0.05700000000000005800, 0.0000000000000000000 ) ) ;
#127 = LINE ( 'NONE', #126, #125 ) ;
#128 = CARTESIAN_POINT ( 'NONE',  ( 0.01950000000000004200, 0.05700000000000005800, 0.0000000000000000000 ) ) ;
#129 = DIRECTION ( 'NONE',  ( 7.114187483500687300E-017, 1.000000000000000000, 0.0000000000000000000 ) ) ;
#130 = VECTOR ( 'NONE', #129, 39.37007874015748100 ) ;
#131 = CARTESIAN_POINT ( 'NONE',  ( 0.01950000000000004500, 0.1170000000000000500, 0.0000000000000000000 ) ) ;
#132 = LINE ( 'NONE', #131, #130 ) ;
#133 = EDGE_CURVE ( 'NONE', #90, #55, #273, .T. ) ;
#134 = EDGE_CURVE ( 'NONE', #249, #138, #496, .T. ) ;
#135 = ORIENTED_EDGE ( 'NONE', *, *, #217, .T. ) ;
#136 = VERTEX_POINT ( 'NONE', #484 ) ;
#137 = ORIENTED_EDGE ( 'NONE', *, *, #265, .T. ) ;
#138 = VERTEX_POINT ( 'NONE', #458 ) ;
#139 = EDGE_LOOP ( 'NONE', ( #135, #218, #137, #123 ) ) ;
#140 = CARTESIAN_POINT ( 'NONE',  ( 0.01950000000000004500, 0.1170000000000000500, 0.0000000000000000000 ) ) ;
#141 = DIRECTION ( 'NONE',  ( 1.000000000000000000, 0.0000000000000000000, 0.0000000000000000000 ) ) ;
#142 = VECTOR ( 'NONE', #141, 39.37007874015748100 ) ;
#143 = CARTESIAN_POINT ( 'NONE',  ( 0.05000000000000003100, 0.1170000000000000500, 0.0000000000000000000 ) ) ;
#144 = LINE ( 'NONE', #143, #142 ) ;
#145 = EDGE_LOOP ( 'NONE', ( #146, #158, #159, #160 ) ) ;
#146 = ORIENTED_EDGE ( 'NONE', *, *, #265, .F. ) ;
#147 = ORIENTED_EDGE ( 'NONE', *, *, #211, .T. ) ;
#148 = ADVANCED_FACE ( 'NONE', ( #460 ), #509, .F. ) ;
#149 = EDGE_LOOP ( 'NONE', ( #150, #151, #153, #172 ) ) ;
#150 = ORIENTED_EDGE ( 'NONE', *, *, #36, .T. ) ;
#151 = ORIENTED_EDGE ( 'NONE', *, *, #152, .F. ) ;
#152 = EDGE_CURVE ( 'NONE', #194, #34, #510, .T. ) ;
#153 = ORIENTED_EDGE ( 'NONE', *, *, #193, .F. ) ;
#154 = ORIENTED_EDGE ( 'NONE', *, *, #18, .T. ) ;
#155 = ORIENTED_EDGE ( 'NONE', *, *, #156, .F. ) ;
#156 = EDGE_CURVE ( 'NONE', #203, #16, #505, .T. ) ;
#157 = ORIENTED_EDGE ( 'NONE', *, *, #202, .F. ) ;
#158 = ORIENTED_EDGE ( 'NONE', *, *, #109, .F. ) ;
#159 = ORIENTED_EDGE ( 'NONE', *, *, #94, .T. ) ;
#160 = ORIENTED_EDGE ( 'NONE', *, *, #161, .T. ) ;
#161 = EDGE_CURVE ( 'NONE', #76, #266, #461, .T. ) ;
#162 = ADVANCED_FACE ( 'NONE', ( #474 ), #462, .T. ) ;
#163 = EDGE_LOOP ( 'NONE', ( #164, #165, #166, #167 ) ) ;
#164 = ORIENTED_EDGE ( 'NONE', *, *, #121, .F. ) ;
#165 = ORIENTED_EDGE ( 'NONE', *, *, #161, .F. ) ;
#166 = ORIENTED_EDGE ( 'NONE', *, *, #75, .T. ) ;
#167 = ORIENTED_EDGE ( 'NONE', *, *, #262, .T. ) ;
#168 = CLOSED_SHELL ( 'NONE', ( #79, #95, #267, #111, #64, #216, #116, #188, #148, #173, #180, #225, #232, #240, #247, #252, #258, #103, #110, #162 ) ) ;
#169 = EDGE_LOOP ( 'NONE', ( #70, #68, #171, #65 ) ) ;
#170 = EDGE_CURVE ( 'NONE', #40, #99, #504, .T. ) ;
#171 = ORIENTED_EDGE ( 'NONE', *, *, #43, .F. ) ;
#172 = ORIENTED_EDGE ( 'NONE', *, *, #182, .T. ) ;
#173 = ADVANCED_FACE ( 'NONE', ( #500 ), #499, .F. ) ;
#174 = EDGE_LOOP ( 'NONE', ( #175, #176, #178, #179 ) ) ;
#175 = ORIENTED_EDGE ( 'NONE', *, *, #33, .T. ) ;
#176 = ORIENTED_EDGE ( 'NONE', *, *, #177, .F. ) ;
#177 = EDGE_CURVE ( 'NONE', #197, #31, #489, .T. ) ;
#178 = ORIENTED_EDGE ( 'NONE', *, *, #196, .F. ) ;
#179 = ORIENTED_EDGE ( 'NONE', *, *, #152, .T. ) ;
#180 = ADVANCED_FACE ( 'NONE', ( #485 ), #517, .F. ) ;
#181 = EDGE_LOOP ( 'NONE', ( #185, #186, #183, #147 ) ) ;
#182 = EDGE_CURVE ( 'NONE', #191, #49, #512, .T. ) ;
#183 = ORIENTED_EDGE ( 'NONE', *, *, #190, .F. ) ;
#184 = ORIENTED_EDGE ( 'NONE', *, *, #92, .F. ) ;
#185 = ORIENTED_EDGE ( 'NONE', *, *, #51, .T. ) ;
#186 = ORIENTED_EDGE ( 'NONE', *, *, #182, .F. ) ;
#187 = ORIENTED_EDGE ( 'NONE', *, *, #133, .T. ) ;
#188 = ADVANCED_FACE ( 'NONE', ( #471 ), #470, .F. ) ;
#189 = ORIENTED_EDGE ( 'NONE', *, *, #190, .T. ) ;
#190 = EDGE_CURVE ( 'NONE', #93, #191, #5, .T. ) ;
#191 = VERTEX_POINT ( 'NONE', #518 ) ;
#192 = ORIENTED_EDGE ( 'NONE', *, *, #193, .T. ) ;
#193 = EDGE_CURVE ( 'NONE', #191, #194, #10, .T. ) ;
#194 = VERTEX_POINT ( 'NONE', #639 ) ;
#195 = ORIENTED_EDGE ( 'NONE', *, *, #196, .T. ) ;
#196 = EDGE_CURVE ( 'NONE', #194, #197, #581, .T. ) ;
#197 = VERTEX_POINT ( 'NONE', #603 ) ;
#198 = ORIENTED_EDGE ( 'NONE', *, *, #199, .T. ) ;
#199 = EDGE_CURVE ( 'NONE', #197, #200, #557, .T. ) ;
#200 = VERTEX_POINT ( 'NONE', #553 ) ;
#201 = ORIENTED_EDGE ( 'NONE', *, *, #202, .T. ) ;
#202 = EDGE_CURVE ( 'NONE', #88, #203, #569, .T. ) ;
#203 = VERTEX_POINT ( 'NONE', #583 ) ;
#204 = ORIENTED_EDGE ( 'NONE', *, *, #205, .T. ) ;
#205 = EDGE_CURVE ( 'NONE', #203, #40, #582, .T. ) ;
#206 = EDGE_LOOP ( 'NONE', ( #207, #71, #74, #77 ) ) ;
#207 = ORIENTED_EDGE ( 'NONE', *, *, #208, .F. ) ;
#208 = EDGE_CURVE ( 'NONE', #209, #210, #596, .T. ) ;
#209 = VERTEX_POINT ( 'NONE', #636 ) ;
#210 = VERTEX_POINT ( 'NONE', #635 ) ;
#211 = EDGE_CURVE ( 'NONE', #93, #52, #594, .T. ) ;
#212 = EDGE_CURVE ( 'NONE', #47, #58, #590, .T. ) ;
#213 = ORIENTED_EDGE ( 'NONE', *, *, #46, .F. ) ;
#214 = ORIENTED_EDGE ( 'NONE', *, *, #69, .T. ) ;
#215 = EDGE_LOOP ( 'NONE', ( #61, #62, #118, #115 ) ) ;
#216 = ADVANCED_FACE ( 'NONE', ( #563 ), #562, .F. ) ;
#217 = EDGE_CURVE ( 'NONE', #136, #249, #551, .T. ) ;
#218 = ORIENTED_EDGE ( 'NONE', *, *, #134, .T. ) ;
#219 = EDGE_LOOP ( 'NONE', ( #220, #221, #223, #224 ) ) ;
#220 = ORIENTED_EDGE ( 'NONE', *, *, #30, .T. ) ;
#221 = ORIENTED_EDGE ( 'NONE', *, *, #222, .F. ) ;
#222 = EDGE_CURVE ( 'NONE', #200, #28, #552, .T. ) ;
#223 = ORIENTED_EDGE ( 'NONE', *, *, #199, .F. ) ;
#224 = ORIENTED_EDGE ( 'NONE', *, *, #177, .T. ) ;
#225 = ADVANCED_FACE ( 'NONE', ( #543 ), #542, .F. ) ;
#226 = EDGE_LOOP ( 'NONE', ( #227, #228, #230, #231 ) ) ;
#227 = ORIENTED_EDGE ( 'NONE', *, *, #27, .T. ) ;
#228 = ORIENTED_EDGE ( 'NONE', *, *, #229, .F. ) ;
#229 = EDGE_CURVE ( 'NONE', #82, #25, #537, .T. ) ;
#230 = ORIENTED_EDGE ( 'NONE', *, *, #81, .F. ) ;
#231 = ORIENTED_EDGE ( 'NONE', *, *, #222, .T. ) ;
#232 = ADVANCED_FACE ( 'NONE', ( #533 ), #532, .F. ) ;
#233 = EDGE_LOOP ( 'NONE', ( #235, #236, #238, #239 ) ) ;
#234 = ORIENTED_EDGE ( 'NONE', *, *, #248, .F. ) ;
#235 = ORIENTED_EDGE ( 'NONE', *, *, #24, .T. ) ;
#236 = ORIENTED_EDGE ( 'NONE', *, *, #237, .F. ) ;
#237 = EDGE_CURVE ( 'NONE', #85, #22, #527, .T. ) ;
#238 = ORIENTED_EDGE ( 'NONE', *, *, #84, .F. ) ;
#239 = ORIENTED_EDGE ( 'NONE', *, *, #229, .T. ) ;
#240 = ADVANCED_FACE ( 'NONE', ( #523 ), #522, .F. ) ;
#241 = EDGE_LOOP ( 'NONE', ( #242, #243, #245, #246 ) ) ;
#242 = ORIENTED_EDGE ( 'NONE', *, *, #21, .T. ) ;
#243 = ORIENTED_EDGE ( 'NONE', *, *, #244, .F. ) ;
#244 = EDGE_CURVE ( 'NONE', #88, #19, #664, .T. ) ;
#245 = ORIENTED_EDGE ( 'NONE', *, *, #87, .F. ) ;
#246 = ORIENTED_EDGE ( 'NONE', *, *, #237, .T. ) ;
#247 = ADVANCED_FACE ( 'NONE', ( #660 ), #659, .F. ) ;
#248 = EDGE_CURVE ( 'NONE', #100, #114, #575, .T. ) ;
#249 = VERTEX_POINT ( 'NONE', #571 ) ;
#250 = EDGE_LOOP ( 'NONE', ( #154, #155, #157, #251 ) ) ;
#251 = ORIENTED_EDGE ( 'NONE', *, *, #244, .T. ) ;
#252 = ADVANCED_FACE ( 'NONE', ( #570 ), #658, .F. ) ;
#253 = EDGE_LOOP ( 'NONE', ( #254, #255, #256, #257 ) ) ;
#254 = ORIENTED_EDGE ( 'NONE', *, *, #15, .T. ) ;
#255 = ORIENTED_EDGE ( 'NONE', *, *, #170, .F. ) ;
#256 = ORIENTED_EDGE ( 'NONE', *, *, #205, .F. ) ;
#257 = ORIENTED_EDGE ( 'NONE', *, *, #156, .T. ) ;
#258 = ADVANCED_FACE ( 'NONE', ( #653 ), #652, .F. ) ;
#259 = EDGE_LOOP ( 'NONE', ( #260, #261, #263, #101 ) ) ;
#260 = ORIENTED_EDGE ( 'NONE', *, *, #217, .F. ) ;
#261 = ORIENTED_EDGE ( 'NONE', *, *, #262, .F. ) ;
#262 = EDGE_CURVE ( 'NONE', #73, #136, #651, .T. ) ;
#263 = ORIENTED_EDGE ( 'NONE', *, *, #72, .T. ) ;
#264 = EDGE_CURVE ( 'NONE', #41, #100, #643, .T. ) ;
#265 = EDGE_CURVE ( 'NONE', #138, #266, #634, .T. ) ;
#266 = VERTEX_POINT ( 'NONE', #629 ) ;
#267 = ADVANCED_FACE ( 'NONE', ( #628 ), #627, .F. ) ;
#268 = ORIENTED_EDGE ( 'NONE', *, *, #98, .T. ) ;
#269 = ORIENTED_EDGE ( 'NONE', *, *, #264, .F. ) ;
#270 = DIRECTION ( 'NONE',  ( 0.0000000000000000000, 0.0000000000000000000, -1.000000000000000000 ) ) ;
#271 = VECTOR ( 'NONE', #270, 39.37007874015748100 ) ;
#272 = CARTESIAN_POINT ( 'NONE',  ( -0.02349999999999998600, 0.2805000000000000300, 0.02000000000000000000 ) ) ;
#273 = LINE ( 'NONE', #272, #271 ) ;
#274 = DIRECTION ( 'NONE',  ( -3.283471146231084700E-016, -1.000000000000000000, 0.0000000000000000000 ) ) ;
#275 = VECTOR ( 'NONE', #274, 39.37007874015748100 ) ;
#276 = CARTESIAN_POINT ( 'NONE',  ( -0.02349996969975957900, 0.2025000000000000100, 0.0000000000000000000 ) ) ;
#277 = LINE ( 'NONE', #276, #275 ) ;
#278 = DIRECTION ( 'NONE',  ( 0.0000000000000000000, 0.0000000000000000000, 1.000000000000000000 ) ) ;
#279 = DIRECTION ( 'NONE',  ( -1.000000000000000000, 0.0000000000000000000, 0.0000000000000000000 ) ) ;
#280 = CARTESIAN_POINT ( 'NONE',  ( -0.02349999999999998600, 0.2805000000000000300, 0.02000000000000000000 ) ) ;
#281 = AXIS2_PLACEMENT_3D ( 'NONE', #280, #279, #278 ) ;
#282 = PLANE ( 'NONE',  #281 ) ;
#283 = FACE_OUTER_BOUND ( 'NONE', #117, .T. ) ;
#284 = CARTESIAN_POINT ( 'NONE',  ( 0.02349999999999998600, 0.3350000000000000200, 0.0000000000000000000 ) ) ;
#285 = DIRECTION ( 'NONE',  ( 0.0000000000000000000, 0.0000000000000000000, -1.000000000000000000 ) ) ;
#286 = FACE_OUTER_BOUND ( 'NONE', #37, .T. ) ;
#287 =( GEOMETRIC_REPRESENTATION_CONTEXT ( 3 ) GLOBAL_UNCERTAINTY_ASSIGNED_CONTEXT ( ( #288 ) ) GLOBAL_UNIT_ASSIGNED_CONTEXT ( ( #291, #290, #289 ) ) REPRESENTATION_CONTEXT ( 'NONE', 'WORKASPACE' ) );
#288 = UNCERTAINTY_MEASURE_WITH_UNIT (LENGTH_MEASURE( 1.000000000000000100E-005 ), #291, 'distance_accuracy_value', 'NONE');
#289 =( NAMED_UNIT ( * ) SI_UNIT ( $, .STERADIAN. ) SOLID_ANGLE_UNIT ( ) );
#290 =( NAMED_UNIT ( * ) PLANE_ANGLE_UNIT ( ) SI_UNIT ( $, .RADIAN. ) );
#291 =( CONVERSION_BASED_UNIT ( 'INCH', #292 ) LENGTH_UNIT ( ) NAMED_UNIT ( #293 ) );
#292 = LENGTH_MEASURE_WITH_UNIT ( LENGTH_MEASURE( 0.02539999999999999900 ), #400 );
#293 = DIMENSIONAL_EXPONENTS ( 1.000000000000000000, 0.0000000000000000000, 0.0000000000000000000, 0.0000000000000000000, 0.0000000000000000000, 0.0000000000000000000, 0.0000000000000000000 ) ;
#294 = CARTESIAN_POINT ( 'NONE',  ( 0.05000000000000003100, 0.1170000000000000500, 0.02000000000000000000 ) ) ;
#295 = CARTESIAN_POINT ( 'NONE',  ( 0.05000000000000000300, 0.3350000000000000200, 0.02000000000000000000 ) ) ;
#296 = DIRECTION ( 'NONE',  ( -1.174819951403782900E-016, 1.000000000000000000, 0.0000000000000000000 ) ) ;
#297 = VECTOR ( 'NONE', #296, 39.37007874015748100 ) ;
#298 = LINE ( 'NONE', #304, #416 ) ;
#299 = DIRECTION ( 'NONE',  ( 0.0000000000000000000, 0.0000000000000000000, -1.000000000000000000 ) ) ;
#300 = VECTOR ( 'NONE', #299, 39.37007874015748100 ) ;
#301 = CARTESIAN_POINT ( 'NONE',  ( 0.02349999999999998600, 0.3350000000000000200, 0.02000000000000000000 ) ) ;
#302 = LINE ( 'NONE', #301, #300 ) ;
#303 = DIRECTION ( 'NONE',  ( 0.0000000000000000000, 0.0000000000000000000, -1.000000000000000000 ) ) ;
#304 = CARTESIAN_POINT ( 'NONE',  ( -0.05000000000000003100, 0.1170000000000000500, 0.0000000000000000000 ) ) ;
#305 = CARTESIAN_POINT ( 'NONE',  ( 0.02349999999999998600, 0.2805000000000000300, 0.0000000000000000000 ) ) ;
#306 = DIRECTION ( 'NONE',  ( 1.000000000000000000, 0.0000000000000000000, 0.0000000000000000000 ) ) ;
#307 = DIRECTION ( 'NONE',  ( 0.0000000000000000000, 0.0000000000000000000, -1.000000000000000000 ) ) ;
#308 = CARTESIAN_POINT ( 'NONE',  ( 0.0000000000000000000, 0.2805000000000000300, 0.0000000000000000000 ) ) ;
#309 = AXIS2_PLACEMENT_3D ( 'NONE', #308, #307, #306 ) ;
#310 = CIRCLE ( 'NONE', #309, 0.02349999999999998600 ) ;
#311 = CARTESIAN_POINT ( 'NONE',  ( -0.05000000000000000300, 0.3350000000000000200, 0.0000000000000000000 ) ) ;
#312 = LINE ( 'NONE', #311, #441 ) ;
#313 = DIRECTION ( 'NONE',  ( 0.0000000000000000000, -1.000000000000000000, 0.0000000000000000000 ) ) ;
#314 = CARTESIAN_POINT ( 'NONE',  ( 0.02349999999999998600, 0.3350000000000000200, 0.02000000000000000000 ) ) ;
#315 = AXIS2_PLACEMENT_3D ( 'NONE', #314, #313, #285 ) ;
#316 = FACE_OUTER_BOUND ( 'NONE', #169, .T. ) ;
#317 = DIRECTION ( 'NONE',  ( -1.000000000000000000, 0.0000000000000000000, 0.0000000000000000000 ) ) ;
#318 = DIRECTION ( 'NONE',  ( 0.0000000000000000000, 0.0000000000000000000, -1.000000000000000000 ) ) ;
#319 = CARTESIAN_POINT ( 'NONE',  ( 0.0000000000000000000, 0.2025000000000000100, 0.02000000000000000000 ) ) ;
#320 = AXIS2_PLACEMENT_3D ( 'NONE', #319, #318, #317 ) ;
#321 = PLANE ( 'NONE',  #315 ) ;
#322 = CYLINDRICAL_SURFACE ( 'NONE', #320, 0.02349996969975957200 ) ;
#323 = FACE_OUTER_BOUND ( 'NONE', #145, .T. ) ;
#324 = DIRECTION ( 'NONE',  ( 0.0000000000000000000, 0.0000000000000000000, -1.000000000000000000 ) ) ;
#325 = VECTOR ( 'NONE', #324, 39.37007874015748100 ) ;
#326 = CARTESIAN_POINT ( 'NONE',  ( 0.02349996969975957200, 0.2025000000000000100, 0.02000000000000000000 ) ) ;
#327 = LINE ( 'NONE', #326, #325 ) ;
#328 = DIRECTION ( 'NONE',  ( 3.283471146231085200E-016, -1.000000000000000000, 0.0000000000000000000 ) ) ;
#329 = DIRECTION ( 'NONE',  ( -1.000000000000000000, -3.283471146231085200E-016, 0.0000000000000000000 ) ) ;
#330 = CARTESIAN_POINT ( 'NONE',  ( 0.02349996969975956900, 0.2025000000000000100, 0.02000000000000000000 ) ) ;
#331 = AXIS2_PLACEMENT_3D ( 'NONE', #330, #329, #328 ) ;
#332 = PLANE ( 'NONE',  #331 ) ;
#333 = FACE_OUTER_BOUND ( 'NONE', #104, .T. ) ;
#334 = DIRECTION ( 'NONE',  ( 0.0000000000000000000, 0.0000000000000000000, -1.000000000000000000 ) ) ;
#335 = VECTOR ( 'NONE', #334, 39.37007874015748100 ) ;
#336 = CARTESIAN_POINT ( 'NONE',  ( 0.02349996969975957200, 0.1895000000000000300, 0.02000000000000000000 ) ) ;
#337 = LINE ( 'NONE', #336, #335 ) ;
#338 = CARTESIAN_POINT ( 'NONE',  ( 0.05000000000000000300, 0.3350000000000000200, 0.0000000000000000000 ) ) ;
#339 = CARTESIAN_POINT ( 'NONE',  ( 0.05000000000000003100, 0.1170000000000000500, 0.0000000000000000000 ) ) ;
#340 = DIRECTION ( 'NONE',  ( -1.174819951403782900E-016, 1.000000000000000000, 0.0000000000000000000 ) ) ;
#341 = VECTOR ( 'NONE', #340, 39.37007874015748100 ) ;
#342 = CARTESIAN_POINT ( 'NONE',  ( 0.05000000000000000300, 0.3350000000000000200, 0.0000000000000000000 ) ) ;
#343 = DIRECTION ( 'NONE',  ( -1.000000000000000000, 0.0000000000000000000, 0.0000000000000000000 ) ) ;
#344 = VECTOR ( 'NONE', #343, 39.37007874015748100 ) ;
#345 = CARTESIAN_POINT ( 'NONE',  ( -0.02349999999999998600, 0.3350000000000000200, 0.0000000000000000000 ) ) ;
#346 = LINE ( 'NONE', #345, #344 ) ;
#347 = CARTESIAN_POINT ( 'NONE',  ( -0.05000000000000000300, 0.3350000000000000200, 0.0000000000000000000 ) ) ;
#348 = CARTESIAN_POINT ( 'NONE',  ( 0.02349999999999998600, 0.2805000000000000300, 0.02000000000000000000 ) ) ;
#349 = CARTESIAN_POINT ( 'NONE',  ( -0.01950000000000004200, 0.05700000000000005800, 0.0000000000000000000 ) ) ;
#350 = LINE ( 'NONE', #349, #456 ) ;
#351 = LINE ( 'NONE', #342, #341 ) ;
#352 = DIRECTION ( 'NONE',  ( 1.000000000000000000, 0.0000000000000000000, 0.0000000000000000000 ) ) ;
#353 = DIRECTION ( 'NONE',  ( 0.0000000000000000000, 0.0000000000000000000, 1.000000000000000000 ) ) ;
#354 = CARTESIAN_POINT ( 'NONE',  ( 0.0000000000000000000, 0.2805000000000000300, 0.0000000000000000000 ) ) ;
#355 = AXIS2_PLACEMENT_3D ( 'NONE', #354, #353, #352 ) ;
#356 = PLANE ( 'NONE',  #355 ) ;
#357 = FACE_BOUND ( 'NONE', #139, .T. ) ;
#358 = FACE_OUTER_BOUND ( 'NONE', #96, .T. ) ;
#359 = DIRECTION ( 'NONE',  ( 1.000000000000000000, 0.0000000000000000000, 0.0000000000000000000 ) ) ;
#360 = DIRECTION ( 'NONE',  ( 0.0000000000000000000, 0.0000000000000000000, 1.000000000000000000 ) ) ;
#361 = CARTESIAN_POINT ( 'NONE',  ( 0.0000000000000000000, 0.2025000000000000100, 0.02000000000000000000 ) ) ;
#362 = AXIS2_PLACEMENT_3D ( 'NONE', #361, #360, #359 ) ;
#363 = CIRCLE ( 'NONE', #362, 0.02349996969975957200 ) ;
#364 = CARTESIAN_POINT ( 'NONE',  ( -0.02349999999999998600, 0.3350000000000000200, 0.02000000000000000000 ) ) ;
#365 = DIRECTION ( 'NONE',  ( 0.0000000000000000000, 1.000000000000000000, 0.0000000000000000000 ) ) ;
#366 = VECTOR ( 'NONE', #365, 39.37007874015748100 ) ;
#367 = CARTESIAN_POINT ( 'NONE',  ( -0.02349999999999998600, 0.2805000000000000300, 0.02000000000000000000 ) ) ;
#368 = LINE ( 'NONE', #367, #366 ) ;
#369 = CARTESIAN_POINT ( 'NONE',  ( -0.02349999999999998600, 0.2805000000000000300, 0.02000000000000000000 ) ) ;
#370 = DIRECTION ( 'NONE',  ( 1.000000000000000000, 0.0000000000000000000, 0.0000000000000000000 ) ) ;
#371 = DIRECTION ( 'NONE',  ( 0.0000000000000000000, 0.0000000000000000000, -1.000000000000000000 ) ) ;
#372 = CARTESIAN_POINT ( 'NONE',  ( 0.0000000000000000000, 0.2805000000000000300, 0.02000000000000000000 ) ) ;
#373 = AXIS2_PLACEMENT_3D ( 'NONE', #372, #371, #370 ) ;
#374 = CIRCLE ( 'NONE', #373, 0.02349999999999998600 ) ;
#375 = CARTESIAN_POINT ( 'NONE',  ( 0.01950000000000004200, 0.05700000000000005800, 0.02000000000000000000 ) ) ;
#376 = DIRECTION ( 'NONE',  ( 1.000000000000000000, 0.0000000000000000000, 0.0000000000000000000 ) ) ;
#377 = CARTESIAN_POINT ( 'NONE',  ( 0.02349999999999998600, 0.2805000000000000300, 0.02000000000000000000 ) ) ;
#378 = AXIS2_PLACEMENT_3D ( 'NONE', #377, #376, #303 ) ;
#379 = PLANE ( 'NONE',  #378 ) ;
#380 = FACE_OUTER_BOUND ( 'NONE', #67, .T. ) ;
#381 = DIRECTION ( 'NONE',  ( 0.0000000000000000000, -1.000000000000000000, 0.0000000000000000000 ) ) ;
#382 = VECTOR ( 'NONE', #381, 39.37007874015748100 ) ;
#383 = CARTESIAN_POINT ( 'NONE',  ( 0.02349999999999998600, 0.2805000000000000300, 0.0000000000000000000 ) ) ;
#384 = LINE ( 'NONE', #383, #382 ) ;
#385 = CARTESIAN_POINT ( 'NONE',  ( -0.02349999999999998600, 0.2805000000000000300, 0.0000000000000000000 ) ) ;
#386 = DIRECTION ( 'NONE',  ( 0.0000000000000000000, 1.000000000000000000, 0.0000000000000000000 ) ) ;
#387 = VECTOR ( 'NONE', #386, 39.37007874015748100 ) ;
#388 = CARTESIAN_POINT ( 'NONE',  ( -0.02349999999999998600, 0.2805000000000000300, 0.0000000000000000000 ) ) ;
#389 = LINE ( 'NONE', #388, #387 ) ;
#390 = CARTESIAN_POINT ( 'NONE',  ( -0.02349999999999998600, 0.3350000000000000200, 0.0000000000000000000 ) ) ;
#391 = DIRECTION ( 'NONE',  ( 0.1643989873053578200, 0.9863939238321436400, 0.0000000000000000000 ) ) ;
#392 = VECTOR ( 'NONE', #391, 39.37007874015748100 ) ;
#393 = CARTESIAN_POINT ( 'NONE',  ( 0.01950000000000004200, 0.05700000000000005800, 0.02000000000000000000 ) ) ;
#394 = LINE ( 'NONE', #393, #392 ) ;
#395 = CARTESIAN_POINT ( 'NONE',  ( 0.01000000000000000000, -2.560501156320563600E-018, 0.02000000000000000000 ) ) ;
#396 = DIRECTION ( 'NONE',  ( 1.000000000000000000, 0.0000000000000000000, 0.0000000000000000000 ) ) ;
#397 = VECTOR ( 'NONE', #396, 39.37007874015748100 ) ;
#398 = CARTESIAN_POINT ( 'NONE',  ( 0.01000000000000000000, -2.560501156320563600E-018, 0.02000000000000000000 ) ) ;
#399 = LINE ( 'NONE', #398, #397 ) ;
#400 =( LENGTH_UNIT ( ) NAMED_UNIT ( * ) SI_UNIT ( $, .METRE. ) );
#401 = MECHANICAL_DESIGN_GEOMETRIC_PRESENTATION_REPRESENTATION (  '', ( #403 ), #287 ) ;
#402 = PRESENTATION_LAYER_ASSIGNMENT (  '', '', ( #403 ) ) ;
#403 = STYLED_ITEM ( 'NONE', ( #404 ), #78 ) ;
#404 = PRESENTATION_STYLE_ASSIGNMENT (( #405 ) ) ;
#405 = SURFACE_STYLE_USAGE ( .BOTH. , #406 ) ;
#406 = SURFACE_SIDE_STYLE ('',( #407 ) ) ;
#407 = SURFACE_STYLE_FILL_AREA ( #408 ) ;
#408 = FILL_AREA_STYLE ('',( #409 ) ) ;
#409 = FILL_AREA_STYLE_COLOUR ( '', #410 ) ;
#410 = COLOUR_RGB ( '',0.7960784313725489700, 0.8235294117647058400, 0.9372549019607843100 ) ;
#411 = CARTESIAN_POINT ( 'NONE',  ( -0.02349996969975957900, 0.2025000000000000100, 0.02000000000000000000 ) ) ;
#412 = CARTESIAN_POINT ( 'NONE',  ( -0.01950000000000004200, 0.05700000000000005800, 0.0000000000000000000 ) ) ;
#413 = DIRECTION ( 'NONE',  ( 0.1643989873053578200, -0.9863939238321436400, 0.0000000000000000000 ) ) ;
#414 = CARTESIAN_POINT ( 'NONE',  ( -0.05000000000000003100, 0.1170000000000000500, 0.0000000000000000000 ) ) ;
#415 = DIRECTION ( 'NONE',  ( 1.000000000000000000, 0.0000000000000000000, 0.0000000000000000000 ) ) ;
#416 = VECTOR ( 'NONE', #415, 39.37007874015748100 ) ;
#417 = DIRECTION ( 'NONE',  ( -3.283471146231084700E-016, -1.000000000000000000, 0.0000000000000000000 ) ) ;
#418 = VECTOR ( 'NONE', #417, 39.37007874015748100 ) ;
#419 = CARTESIAN_POINT ( 'NONE',  ( -0.02349996969975957900, 0.2025000000000000100, 0.02000000000000000000 ) ) ;
#420 = LINE ( 'NONE', #419, #418 ) ;
#421 = CARTESIAN_POINT ( 'NONE',  ( -0.02349996969975958300, 0.1895000000000000300, 0.02000000000000000000 ) ) ;
#422 = DIRECTION ( 'NONE',  ( 1.000000000000000000, 0.0000000000000000000, 0.0000000000000000000 ) ) ;
#423 = DIRECTION ( 'NONE',  ( 0.0000000000000000000, 0.0000000000000000000, 1.000000000000000000 ) ) ;
#424 = CARTESIAN_POINT ( 'NONE',  ( 0.0000000000000000000, 0.1895000000000000300, 0.02000000000000000000 ) ) ;
#425 = AXIS2_PLACEMENT_3D ( 'NONE', #424, #423, #422 ) ;
#426 = CIRCLE ( 'NONE', #425, 0.02349996969975957900 ) ;
#427 = CARTESIAN_POINT ( 'NONE',  ( -0.01000000000000000000, -2.560501156320563600E-018, 0.02000000000000000000 ) ) ;
#428 = DIRECTION ( 'NONE',  ( 0.1643989873053578200, -0.9863939238321436400, 0.0000000000000000000 ) ) ;
#429 = VECTOR ( 'NONE', #428, 39.37007874015748100 ) ;
#430 = CARTESIAN_POINT ( 'NONE',  ( -0.01950000000000004200, 0.05700000000000005800, 0.02000000000000000000 ) ) ;
#431 = LINE ( 'NONE', #430, #429 ) ;
#432 = DIRECTION ( 'NONE',  ( 1.000000000000000000, 0.0000000000000000000, 0.0000000000000000000 ) ) ;
#433 = DIRECTION ( 'NONE',  ( 0.0000000000000000000, 0.0000000000000000000, 1.000000000000000000 ) ) ;
#434 = CARTESIAN_POINT ( 'NONE',  ( 0.0000000000000000000, 0.2805000000000000300, 0.02000000000000000000 ) ) ;
#435 = AXIS2_PLACEMENT_3D ( 'NONE', #434, #433, #432 ) ;
#436 = PLANE ( 'NONE',  #435 ) ;
#437 = FACE_BOUND ( 'NONE', #206, .T. ) ;
#438 = CARTESIAN_POINT ( 'NONE',  ( 0.05000000000000000300, 0.3350000000000000200, 0.02000000000000000000 ) ) ;
#439 = LINE ( 'NONE', #438, #297 ) ;
#440 = DIRECTION ( 'NONE',  ( -1.174819951403782900E-016, -1.000000000000000000, 0.0000000000000000000 ) ) ;
#441 = VECTOR ( 'NONE', #440, 39.37007874015748100 ) ;
#442 = CARTESIAN_POINT ( 'NONE',  ( -0.01950000000000004500, 0.1170000000000000500, 0.0000000000000000000 ) ) ;
#443 = LINE ( 'NONE', #442, #450 ) ;
#444 = DIRECTION ( 'NONE',  ( 0.0000000000000000000, -1.000000000000000000, 0.0000000000000000000 ) ) ;
#445 = VECTOR ( 'NONE', #444, 39.37007874015748100 ) ;
#446 = CARTESIAN_POINT ( 'NONE',  ( 0.02349999999999998600, 0.2805000000000000300, 0.02000000000000000000 ) ) ;
#447 = LINE ( 'NONE', #446, #445 ) ;
#448 = CARTESIAN_POINT ( 'NONE',  ( -0.01950000000000004500, 0.1170000000000000500, 0.0000000000000000000 ) ) ;
#449 = DIRECTION ( 'NONE',  ( 7.114187483500687300E-017, -1.000000000000000000, 0.0000000000000000000 ) ) ;
#450 = VECTOR ( 'NONE', #449, 39.37007874015748100 ) ;
#451 = CARTESIAN_POINT ( 'NONE',  ( 0.02349999999999998600, 0.3350000000000000200, 0.02000000000000000000 ) ) ;
#452 = DIRECTION ( 'NONE',  ( -1.000000000000000000, 0.0000000000000000000, 0.0000000000000000000 ) ) ;
#453 = VECTOR ( 'NONE', #452, 39.37007874015748100 ) ;
#454 = CARTESIAN_POINT ( 'NONE',  ( 0.02349999999999998600, 0.3350000000000000200, 0.02000000000000000000 ) ) ;
#455 = LINE ( 'NONE', #454, #453 ) ;
#456 = VECTOR ( 'NONE', #413, 39.37007874015748100 ) ;
#457 = CARTESIAN_POINT ( 'NONE',  ( -0.01000000000000000000, -2.560501156320563600E-018, 0.0000000000000000000 ) ) ;
#458 = CARTESIAN_POINT ( 'NONE',  ( 0.02349996969975957200, 0.2025000000000000100, 0.0000000000000000000 ) ) ;
#459 = DIRECTION ( 'NONE',  ( -3.283471146231084700E-016, 1.000000000000000000, 0.0000000000000000000 ) ) ;
#460 = FACE_OUTER_BOUND ( 'NONE', #149, .T. ) ;
#461 = LINE ( 'NONE', #477, #476 ) ;
#462 = PLANE ( 'NONE',  #481 ) ;
#463 = DIRECTION ( 'NONE',  ( 0.0000000000000000000, 0.0000000000000000000, -1.000000000000000000 ) ) ;
#464 = VECTOR ( 'NONE', #463, 39.37007874015748100 ) ;
#465 = CARTESIAN_POINT ( 'NONE',  ( 0.01950000000000004500, 0.1170000000000000500, 0.02000000000000000000 ) ) ;
#466 = DIRECTION ( 'NONE',  ( 0.0000000000000000000, 0.0000000000000000000, -1.000000000000000000 ) ) ;
#467 = DIRECTION ( 'NONE',  ( 0.0000000000000000000, -1.000000000000000000, 0.0000000000000000000 ) ) ;
#468 = CARTESIAN_POINT ( 'NONE',  ( -0.02349999999999998600, 0.3350000000000000200, 0.02000000000000000000 ) ) ;
#469 = AXIS2_PLACEMENT_3D ( 'NONE', #468, #467, #466 ) ;
#470 = PLANE ( 'NONE',  #469 ) ;
#471 = FACE_OUTER_BOUND ( 'NONE', #181, .T. ) ;
#472 = DIRECTION ( 'NONE',  ( 0.0000000000000000000, 0.0000000000000000000, -1.000000000000000000 ) ) ;
#473 = VECTOR ( 'NONE', #472, 39.37007874015748100 ) ;
#474 = FACE_OUTER_BOUND ( 'NONE', #163, .T. ) ;
#475 = DIRECTION ( 'NONE',  ( 0.0000000000000000000, 0.0000000000000000000, -1.000000000000000000 ) ) ;
#476 = VECTOR ( 'NONE', #475, 39.37007874015748100 ) ;
#477 = CARTESIAN_POINT ( 'NONE',  ( -0.02349996969975957900, 0.2025000000000000100, 0.02000000000000000000 ) ) ;
#478 = DIRECTION ( 'NONE',  ( 3.283471146231085200E-016, 1.000000000000000000, 0.0000000000000000000 ) ) ;
#479 = DIRECTION ( 'NONE',  ( 1.000000000000000000, -3.283471146231085200E-016, 0.0000000000000000000 ) ) ;
#480 = CARTESIAN_POINT ( 'NONE',  ( -0.02349996969975957900, 0.2025000000000000100, 0.02000000000000000000 ) ) ;
#481 = AXIS2_PLACEMENT_3D ( 'NONE', #480, #479, #478 ) ;
#482 = CARTESIAN_POINT ( 'NONE',  ( -0.05000000000000000300, 0.3350000000000000200, 0.02000000000000000000 ) ) ;
#483 = AXIS2_PLACEMENT_3D ( 'NONE', #482, #508, #507 ) ;
#484 = CARTESIAN_POINT ( 'NONE',  ( -0.02349996969975958300, 0.1895000000000000600, 0.0000000000000000000 ) ) ;
#485 = FACE_OUTER_BOUND ( 'NONE', #219, .T. ) ;
#486 = DIRECTION ( 'NONE',  ( 0.0000000000000000000, 0.0000000000000000000, -1.000000000000000000 ) ) ;
#487 = VECTOR ( 'NONE', #486, 39.37007874015748100 ) ;
#488 = CARTESIAN_POINT ( 'NONE',  ( -0.01950000000000004500, 0.1170000000000000500, 0.02000000000000000000 ) ) ;
#489 = LINE ( 'NONE', #488, #487 ) ;
#490 = DIRECTION ( 'NONE',  ( 0.0000000000000000000, 0.0000000000000000000, 1.000000000000000000 ) ) ;
#491 = DIRECTION ( 'NONE',  ( 0.0000000000000000000, 1.000000000000000000, 0.0000000000000000000 ) ) ;
#492 = CARTESIAN_POINT ( 'NONE',  ( 0.02349996969975956900, 0.2025000000000000100, 0.0000000000000000000 ) ) ;
#493 = DIRECTION ( 'NONE',  ( 0.0000000000000000000, 0.0000000000000000000, -1.000000000000000000 ) ) ;
#494 = CARTESIAN_POINT ( 'NONE',  ( -0.05000000000000003100, 0.1170000000000000500, 0.02000000000000000000 ) ) ;
#495 = VECTOR ( 'NONE', #459, 39.37007874015748100 ) ;
#496 = LINE ( 'NONE', #492, #495 ) ;
#497 = CARTESIAN_POINT ( 'NONE',  ( -0.05000000000000003100, 0.1170000000000000500, 0.02000000000000000000 ) ) ;
#498 = AXIS2_PLACEMENT_3D ( 'NONE', #497, #491, #490 ) ;
#499 = PLANE ( 'NONE',  #498 ) ;
#500 = FACE_OUTER_BOUND ( 'NONE', #174, .T. ) ;
#501 = DIRECTION ( 'NONE',  ( 0.0000000000000000000, 0.0000000000000000000, -1.000000000000000000 ) ) ;
#502 = VECTOR ( 'NONE', #501, 39.37007874015748100 ) ;
#503 = CARTESIAN_POINT ( 'NONE',  ( 0.05000000000000003100, 0.1170000000000000500, 0.02000000000000000000 ) ) ;
#504 = LINE ( 'NONE', #503, #502 ) ;
#505 = LINE ( 'NONE', #465, #464 ) ;
#506 = VECTOR ( 'NONE', #493, 39.37007874015748100 ) ;
#507 = DIRECTION ( 'NONE',  ( 1.174819951403782900E-016, 1.000000000000000000, 0.0000000000000000000 ) ) ;
#508 = DIRECTION ( 'NONE',  ( 1.000000000000000000, -1.174819951403782900E-016, 0.0000000000000000000 ) ) ;
#509 = PLANE ( 'NONE',  #483 ) ;
#510 = LINE ( 'NONE', #494, #506 ) ;
#511 = CARTESIAN_POINT ( 'NONE',  ( -0.05000000000000000300, 0.3350000000000000200, 0.02000000000000000000 ) ) ;
#512 = LINE ( 'NONE', #511, #473 ) ;
#513 = DIRECTION ( 'NONE',  ( -7.114187483500687300E-017, 1.000000000000000000, 0.0000000000000000000 ) ) ;
#514 = DIRECTION ( 'NONE',  ( 1.000000000000000000, 7.114187483500687300E-017, 0.0000000000000000000 ) ) ;
#515 = CARTESIAN_POINT ( 'NONE',  ( -0.01950000000000004500, 0.1170000000000000500, 0.02000000000000000000 ) ) ;
#516 = AXIS2_PLACEMENT_3D ( 'NONE', #515, #514, #513 ) ;
#517 = PLANE ( 'NONE',  #516 ) ;
#518 = CARTESIAN_POINT ( 'NONE',  ( -0.05000000000000000300, 0.3350000000000000200, 0.02000000000000000000 ) ) ;
#519 = DIRECTION ( 'NONE',  ( -0.9863939238321436400, 0.1643989873053578500, 0.0000000000000000000 ) ) ;
#520 = CARTESIAN_POINT ( 'NONE',  ( 0.01950000000000004200, 0.05700000000000005800, 0.02000000000000000000 ) ) ;
#521 = AXIS2_PLACEMENT_3D ( 'NONE', #520, #519, #665 ) ;
#522 = PLANE ( 'NONE',  #521 ) ;
#523 = FACE_OUTER_BOUND ( 'NONE', #241, .T. ) ;
#524 = DIRECTION ( 'NONE',  ( 0.0000000000000000000, 0.0000000000000000000, -1.000000000000000000 ) ) ;
#525 = VECTOR ( 'NONE', #524, 39.37007874015748100 ) ;
#526 = CARTESIAN_POINT ( 'NONE',  ( 0.01000000000000000000, -2.560501156320563600E-018, 0.02000000000000000000 ) ) ;
#527 = LINE ( 'NONE', #526, #525 ) ;
#528 = DIRECTION ( 'NONE',  ( 0.0000000000000000000, 0.0000000000000000000, 1.000000000000000000 ) ) ;
#529 = DIRECTION ( 'NONE',  ( 0.0000000000000000000, 1.000000000000000000, 0.0000000000000000000 ) ) ;
#530 = CARTESIAN_POINT ( 'NONE',  ( 0.01000000000000000000, -2.560501156320563600E-018, 0.02000000000000000000 ) ) ;
#531 = AXIS2_PLACEMENT_3D ( 'NONE', #530, #529, #528 ) ;
#532 = PLANE ( 'NONE',  #531 ) ;
#533 = FACE_OUTER_BOUND ( 'NONE', #233, .T. ) ;
#534 = DIRECTION ( 'NONE',  ( 0.0000000000000000000, 0.0000000000000000000, -1.000000000000000000 ) ) ;
#535 = VECTOR ( 'NONE', #534, 39.37007874015748100 ) ;
#536 = CARTESIAN_POINT ( 'NONE',  ( -0.01000000000000000000, -2.560501156320563600E-018, 0.02000000000000000000 ) ) ;
#537 = LINE ( 'NONE', #536, #535 ) ;
#538 = DIRECTION ( 'NONE',  ( -0.1643989873053578500, 0.9863939238321436400, 0.0000000000000000000 ) ) ;
#539 = DIRECTION ( 'NONE',  ( 0.9863939238321436400, 0.1643989873053578500, 0.0000000000000000000 ) ) ;
#540 = CARTESIAN_POINT ( 'NONE',  ( -0.01950000000000004200, 0.05700000000000005800, 0.02000000000000000000 ) ) ;
#541 = AXIS2_PLACEMENT_3D ( 'NONE', #540, #539, #538 ) ;
#542 = PLANE ( 'NONE',  #541 ) ;
#543 = FACE_OUTER_BOUND ( 'NONE', #226, .T. ) ;
#544 = DIRECTION ( 'NONE',  ( 0.0000000000000000000, 0.0000000000000000000, -1.000000000000000000 ) ) ;
#545 = VECTOR ( 'NONE', #544, 39.37007874015748100 ) ;
#546 = CARTESIAN_POINT ( 'NONE',  ( -0.01950000000000004200, 0.05700000000000005800, 0.02000000000000000000 ) ) ;
#547 = DIRECTION ( 'NONE',  ( 1.000000000000000000, 0.0000000000000000000, 0.0000000000000000000 ) ) ;
#548 = DIRECTION ( 'NONE',  ( 0.0000000000000000000, 0.0000000000000000000, 1.000000000000000000 ) ) ;
#549 = CARTESIAN_POINT ( 'NONE',  ( 0.0000000000000000000, 0.1895000000000000300, 0.0000000000000000000 ) ) ;
#550 = AXIS2_PLACEMENT_3D ( 'NONE', #549, #548, #547 ) ;
#551 = CIRCLE ( 'NONE', #550, 0.02349996969975957900 ) ;
#552 = LINE ( 'NONE', #546, #545 ) ;
#553 = CARTESIAN_POINT ( 'NONE',  ( -0.01950000000000004200, 0.05700000000000005800, 0.02000000000000000000 ) ) ;
#554 = DIRECTION ( 'NONE',  ( 7.114187483500687300E-017, -1.000000000000000000, 0.0000000000000000000 ) ) ;
#555 = VECTOR ( 'NONE', #554, 39.37007874015748100 ) ;
#556 = CARTESIAN_POINT ( 'NONE',  ( -0.01950000000000004500, 0.1170000000000000500, 0.02000000000000000000 ) ) ;
#557 = LINE ( 'NONE', #556, #555 ) ;
#558 = DIRECTION ( 'NONE',  ( -1.000000000000000000, 0.0000000000000000000, 0.0000000000000000000 ) ) ;
#559 = DIRECTION ( 'NONE',  ( 0.0000000000000000000, 0.0000000000000000000, -1.000000000000000000 ) ) ;
#560 = CARTESIAN_POINT ( 'NONE',  ( 0.0000000000000000000, 0.2805000000000000300, 0.02000000000000000000 ) ) ;
#561 = AXIS2_PLACEMENT_3D ( 'NONE', #560, #559, #558 ) ;
#562 = CYLINDRICAL_SURFACE ( 'NONE', #561, 0.02349999999999998600 ) ;
#563 = FACE_OUTER_BOUND ( 'NONE', #215, .T. ) ;
#564 = PRODUCT_DEFINITION_SHAPE ( 'NONE', 'NONE',  #567 ) ;
#565 = PRODUCT_RELATED_PRODUCT_CATEGORY ( 'part', '', ( #608 ) ) ;
#566 = PRODUCT_DEFINITION_FORMATION_WITH_SPECIFIED_SOURCE ( 'ANY', '', #608, .NOT_KNOWN. ) ;
#567 = PRODUCT_DEFINITION ( 'UNKNOWN', '', #566, #568 ) ;
#568 = PRODUCT_DEFINITION_CONTEXT ( 'detailed design', #607, 'design' ) ;
#569 = LINE ( 'NONE', #586, #585 ) ;
#570 = FACE_OUTER_BOUND ( 'NONE', #253, .T. ) ;
#571 = CARTESIAN_POINT ( 'NONE',  ( 0.02349996969975957200, 0.1895000000000000300, 0.0000000000000000000 ) ) ;
#572 = DIRECTION ( 'NONE',  ( -1.000000000000000000, 0.0000000000000000000, 0.0000000000000000000 ) ) ;
#573 = VECTOR ( 'NONE', #572, 39.37007874015748100 ) ;
#574 = CARTESIAN_POINT ( 'NONE',  ( 0.02349999999999998600, 0.3350000000000000200, 0.0000000000000000000 ) ) ;
#575 = LINE ( 'NONE', #574, #573 ) ;
#576 = DIRECTION ( 'NONE',  ( -7.114187483500687300E-017, -1.000000000000000000, 0.0000000000000000000 ) ) ;
#577 = DIRECTION ( 'NONE',  ( -1.000000000000000000, 7.114187483500687300E-017, 0.0000000000000000000 ) ) ;
#578 = CARTESIAN_POINT ( 'NONE',  ( 0.01950000000000004500, 0.1170000000000000500, 0.02000000000000000000 ) ) ;
#579 = AXIS2_PLACEMENT_3D ( 'NONE', #578, #577, #576 ) ;
#580 = CARTESIAN_POINT ( 'NONE',  ( -0.05000000000000003100, 0.1170000000000000500, 0.02000000000000000000 ) ) ;
#581 = LINE ( 'NONE', #580, #605 ) ;
#582 = LINE ( 'NONE', #599, #598 ) ;
#583 = CARTESIAN_POINT ( 'NONE',  ( 0.01950000000000004500, 0.1170000000000000500, 0.02000000000000000000 ) ) ;
#584 = DIRECTION ( 'NONE',  ( 7.114187483500687300E-017, 1.000000000000000000, 0.0000000000000000000 ) ) ;
#585 = VECTOR ( 'NONE', #584, 39.37007874015748100 ) ;
#586 = CARTESIAN_POINT ( 'NONE',  ( 0.01950000000000004500, 0.1170000000000000500, 0.02000000000000000000 ) ) ;
#587 = DIRECTION ( 'NONE',  ( 0.0000000000000000000, 0.0000000000000000000, -1.000000000000000000 ) ) ;
#588 = VECTOR ( 'NONE', #587, 39.37007874015748100 ) ;
#589 = CARTESIAN_POINT ( 'NONE',  ( 0.02349999999999998600, 0.2805000000000000300, 0.02000000000000000000 ) ) ;
#590 = LINE ( 'NONE', #589, #588 ) ;
#591 = DIRECTION ( 'NONE',  ( 0.0000000000000000000, 0.0000000000000000000, -1.000000000000000000 ) ) ;
#592 = VECTOR ( 'NONE', #591, 39.37007874015748100 ) ;
#593 = CARTESIAN_POINT ( 'NONE',  ( -0.02349999999999998600, 0.3350000000000000200, 0.02000000000000000000 ) ) ;
#594 = LINE ( 'NONE', #593, #592 ) ;
#595 = CARTESIAN_POINT ( 'NONE',  ( 0.02349996969975956900, 0.2025000000000000100, 0.02000000000000000000 ) ) ;
#596 = LINE ( 'NONE', #595, #638 ) ;
#597 = DIRECTION ( 'NONE',  ( 1.000000000000000000, 0.0000000000000000000, 0.0000000000000000000 ) ) ;
#598 = VECTOR ( 'NONE', #597, 39.37007874015748100 ) ;
#599 = CARTESIAN_POINT ( 'NONE',  ( 0.05000000000000003100, 0.1170000000000000500, 0.02000000000000000000 ) ) ;
#600 =( GEOMETRIC_REPRESENTATION_CONTEXT ( 3 ) GLOBAL_UNCERTAINTY_ASSIGNED_CONTEXT ( ( #601 ) ) GLOBAL_UNIT_ASSIGNED_CONTEXT ( ( #618, #617, #602 ) ) REPRESENTATION_CONTEXT ( 'NONE', 'WORKASPACE' ) );
#601 = UNCERTAINTY_MEASURE_WITH_UNIT (LENGTH_MEASURE( 1.000000000000000100E-005 ), #618, 'distance_accuracy_value', 'NONE');
#602 =( NAMED_UNIT ( * ) SI_UNIT ( $, .STERADIAN. ) SOLID_ANGLE_UNIT ( ) );
#603 = CARTESIAN_POINT ( 'NONE',  ( -0.01950000000000004500, 0.1170000000000000500, 0.02000000000000000000 ) ) ;
#604 = DIRECTION ( 'NONE',  ( 1.000000000000000000, 0.0000000000000000000, 0.0000000000000000000 ) ) ;
#605 = VECTOR ( 'NONE', #604, 39.37007874015748100 ) ;
#606 = APPLICATION_PROTOCOL_DEFINITION ( 'draft international standard', 'automotive_design', 1998, #607 ) ;
#607 = APPLICATION_CONTEXT ( 'automotive_design' ) ;
#608 = PRODUCT ( '1035', '1035', '', ( #609 ) ) ;
#609 = PRODUCT_CONTEXT ( 'NONE', #611, 'mechanical' ) ;
#610 = APPLICATION_PROTOCOL_DEFINITION ( 'draft international standard', 'automotive_design', 1998, #611 ) ;
#611 = APPLICATION_CONTEXT ( 'automotive_design' ) ;
#612 = DIRECTION ( 'NONE',  ( 1.000000000000000000, 0.0000000000000000000, 0.0000000000000000000 ) ) ;
#613 = CARTESIAN_POINT ( 'NONE',  ( 0.0000000000000000000, 0.0000000000000000000, 0.0000000000000000000 ) ) ;
#614 = AXIS2_PLACEMENT_3D ( 'NONE', #613, #622, #612 ) ;
#615 = SHAPE_DEFINITION_REPRESENTATION ( #564, #616 ) ;
#616 = ADVANCED_BREP_SHAPE_REPRESENTATION ( '1035', ( #78, #614 ), #600 ) ;
#617 =( NAMED_UNIT ( * ) PLANE_ANGLE_UNIT ( ) SI_UNIT ( $, .RADIAN. ) );
#618 =( CONVERSION_BASED_UNIT ( 'INCH', #619 ) LENGTH_UNIT ( ) NAMED_UNIT ( #620 ) );
#619 = LENGTH_MEASURE_WITH_UNIT ( LENGTH_MEASURE( 0.02539999999999999900 ), #621 );
#620 = DIMENSIONAL_EXPONENTS ( 1.000000000000000000, 0.0000000000000000000, 0.0000000000000000000, 0.0000000000000000000, 0.0000000000000000000, 0.0000000000000000000, 0.0000000000000000000 ) ;
#621 =( LENGTH_UNIT ( ) NAMED_UNIT ( * ) SI_UNIT ( $, .METRE. ) );
#622 = DIRECTION ( 'NONE',  ( 0.0000000000000000000, 0.0000000000000000000, 1.000000000000000000 ) ) ;
#623 = DIRECTION ( 'NONE',  ( 1.174819951403782900E-016, -1.000000000000000000, 0.0000000000000000000 ) ) ;
#624 = DIRECTION ( 'NONE',  ( -1.000000000000000000, -1.174819951403782900E-016, 0.0000000000000000000 ) ) ;
#625 = CARTESIAN_POINT ( 'NONE',  ( 0.05000000000000000300, 0.3350000000000000200, 0.02000000000000000000 ) ) ;
#626 = AXIS2_PLACEMENT_3D ( 'NONE', #625, #624, #623 ) ;
#627 = PLANE ( 'NONE',  #626 ) ;
#628 = FACE_OUTER_BOUND ( 'NONE', #122, .T. ) ;
#629 = CARTESIAN_POINT ( 'NONE',  ( -0.02349996969975957900, 0.2025000000000000100, 0.0000000000000000000 ) ) ;
#630 = DIRECTION ( 'NONE',  ( 1.000000000000000000, 0.0000000000000000000, 0.0000000000000000000 ) ) ;
#631 = DIRECTION ( 'NONE',  ( 0.0000000000000000000, 0.0000000000000000000, 1.000000000000000000 ) ) ;
#632 = CARTESIAN_POINT ( 'NONE',  ( 0.0000000000000000000, 0.2025000000000000100, 0.0000000000000000000 ) ) ;
#633 = AXIS2_PLACEMENT_3D ( 'NONE', #632, #631, #630 ) ;
#634 = CIRCLE ( 'NONE', #633, 0.02349996969975957200 ) ;
#635 = CARTESIAN_POINT ( 'NONE',  ( 0.02349996969975957200, 0.2025000000000000100, 0.02000000000000000000 ) ) ;
#636 = CARTESIAN_POINT ( 'NONE',  ( 0.02349996969975957200, 0.1895000000000000300, 0.02000000000000000000 ) ) ;
#637 = DIRECTION ( 'NONE',  ( -3.283471146231084700E-016, 1.000000000000000000, 0.0000000000000000000 ) ) ;
#638 = VECTOR ( 'NONE', #637, 39.37007874015748100 ) ;
#639 = CARTESIAN_POINT ( 'NONE',  ( -0.05000000000000003100, 0.1170000000000000500, 0.02000000000000000000 ) ) ;
#640 = DIRECTION ( 'NONE',  ( 0.0000000000000000000, 0.0000000000000000000, -1.000000000000000000 ) ) ;
#641 = VECTOR ( 'NONE', #640, 39.37007874015748100 ) ;
#642 = CARTESIAN_POINT ( 'NONE',  ( 0.05000000000000000300, 0.3350000000000000200, 0.02000000000000000000 ) ) ;
#643 = LINE ( 'NONE', #642, #641 ) ;
#644 = DIRECTION ( 'NONE',  ( 0.0000000000000000000, 0.0000000000000000000, -1.000000000000000000 ) ) ;
#645 = VECTOR ( 'NONE', #644, 39.37007874015748100 ) ;
#646 = CARTESIAN_POINT ( 'NONE',  ( -0.02349996969975958300, 0.1895000000000000300, 0.02000000000000000000 ) ) ;
#647 = DIRECTION ( 'NONE',  ( -1.000000000000000000, 0.0000000000000000000, 0.0000000000000000000 ) ) ;
#648 = DIRECTION ( 'NONE',  ( 0.0000000000000000000, 0.0000000000000000000, -1.000000000000000000 ) ) ;
#649 = CARTESIAN_POINT ( 'NONE',  ( 0.0000000000000000000, 0.1895000000000000300, 0.02000000000000000000 ) ) ;
#650 = AXIS2_PLACEMENT_3D ( 'NONE', #649, #648, #647 ) ;
#651 = LINE ( 'NONE', #646, #645 ) ;
#652 = CYLINDRICAL_SURFACE ( 'NONE', #650, 0.02349996969975957900 ) ;
#653 = FACE_OUTER_BOUND ( 'NONE', #259, .T. ) ;
#654 = DIRECTION ( 'NONE',  ( 0.0000000000000000000, 0.0000000000000000000, 1.000000000000000000 ) ) ;
#655 = DIRECTION ( 'NONE',  ( 0.0000000000000000000, 1.000000000000000000, 0.0000000000000000000 ) ) ;
#656 = CARTESIAN_POINT ( 'NONE',  ( 0.05000000000000003100, 0.1170000000000000500, 0.02000000000000000000 ) ) ;
#657 = AXIS2_PLACEMENT_3D ( 'NONE', #656, #655, #654 ) ;
#658 = PLANE ( 'NONE',  #657 ) ;
#659 = PLANE ( 'NONE',  #579 ) ;
#660 = FACE_OUTER_BOUND ( 'NONE', #250, .T. ) ;
#661 = DIRECTION ( 'NONE',  ( 0.0000000000000000000, 0.0000000000000000000, -1.000000000000000000 ) ) ;
#662 = VECTOR ( 'NONE', #661, 39.37007874015748100 ) ;
#663 = CARTESIAN_POINT ( 'NONE',  ( 0.01950000000000004200, 0.05700000000000005800, 0.02000000000000000000 ) ) ;
#664 = LINE ( 'NONE', #663, #662 ) ;
#665 = DIRECTION ( 'NONE',  ( -0.1643989873053578500, -0.9863939238321436400, 0.0000000000000000000 ) ) ;
ENDSEC;
END-ISO-10303-21;
